<?xml version="1.0" encoding="UTF-8" standalone="no"?>
<!-- Created with Inkscape (http://www.inkscape.org/) -->

<svg
   xmlns:dc="http://purl.org/dc/elements/1.1/"
   xmlns:cc="http://creativecommons.org/ns#"
   xmlns:rdf="http://www.w3.org/1999/02/22-rdf-syntax-ns#"
   xmlns:svg="http://www.w3.org/2000/svg"
   xmlns="http://www.w3.org/2000/svg"
   xmlns:sodipodi="http://sodipodi.sourceforge.net/DTD/sodipodi-0.dtd"
   xmlns:inkscape="http://www.inkscape.org/namespaces/inkscape"
   width="69.039711mm"
   height="11.441162mm"
   viewBox="0 0 69.039711 11.441162"
   version="1.1"
   id="svg8"
   sodipodi:docname="header_top_right.svg"
   inkscape:version="0.92.4 5da689c313, 2019-01-14">
  <defs
     id="defs2" />
  <sodipodi:namedview
     id="base"
     pagecolor="#ffffff"
     bordercolor="#666666"
     borderopacity="1.0"
     inkscape:pageopacity="0.0"
     inkscape:pageshadow="2"
     inkscape:zoom="0.98994949"
     inkscape:cx="280.16484"
     inkscape:cy="-175.11103"
     inkscape:document-units="mm"
     inkscape:current-layer="layer1"
     showgrid="false"
     inkscape:window-width="1918"
     inkscape:window-height="1059"
     inkscape:window-x="1"
     inkscape:window-y="20"
     inkscape:window-maximized="0"
     fit-margin-top="0"
     fit-margin-left="0"
     fit-margin-right="0"
     fit-margin-bottom="0" />
  <metadata
     id="metadata5">
    <rdf:RDF>
      <cc:Work
         rdf:about="">
        <dc:format>image/svg+xml</dc:format>
        <dc:type
           rdf:resource="http://purl.org/dc/dcmitype/StillImage" />
        <dc:title></dc:title>
      </cc:Work>
    </rdf:RDF>
  </metadata>
  <g
     inkscape:label="Layer 1"
     inkscape:groupmode="layer"
     id="layer1"
     transform="translate(-23.930617,-46.435743)">
    <g
       aria-label="...but not really."
       style="font-style:normal;font-variant:normal;font-weight:normal;font-stretch:normal;font-size:10.58333302px;line-height:125%;font-family:'sage sans';-inkscape-font-specification:'sage sans';letter-spacing:0px;word-spacing:0px;fill:#000000;fill-opacity:1;stroke:none;stroke-width:0.26458332px;stroke-linecap:butt;stroke-linejoin:miter;stroke-opacity:1"
       id="text836">
      <path
         d="m 24.044305,54.64196 q 0.165364,-0.3514 0.537434,-0.3514 0.134359,0 0.289388,0.06201 0.465088,0.196371 0.465088,0.7028 0,0.175699 -0.04134,0.258382 -0.03101,0.08268 -0.165364,0.227376 -0.196371,0.196371 -0.434082,0.196371 -0.3514,0 -0.558106,-0.1757 -0.206706,-0.186036 -0.206706,-0.475424 0,-0.186035 0.113689,-0.444417 z"
         style="stroke-width:0.26458332px"
         id="path4622"
         inkscape:connector-curvature="0" />
      <path
         d="m 26.442091,54.64196 q 0.165364,-0.3514 0.537435,-0.3514 0.134358,0 0.289388,0.06201 0.465088,0.196371 0.465088,0.7028 0,0.175699 -0.04134,0.258382 -0.03101,0.08268 -0.165365,0.227376 -0.196371,0.196371 -0.434082,0.196371 -0.3514,0 -0.558106,-0.1757 -0.206705,-0.186036 -0.206705,-0.475424 0,-0.186035 0.113688,-0.444417 z"
         style="stroke-width:0.26458332px"
         id="path4624"
         inkscape:connector-curvature="0" />
      <path
         d="m 28.839877,54.64196 q 0.165365,-0.3514 0.537435,-0.3514 0.134359,0 0.289388,0.06201 0.465088,0.196371 0.465088,0.7028 0,0.175699 -0.04134,0.258382 -0.03101,0.08268 -0.165365,0.227376 -0.19637,0.196371 -0.434082,0.196371 -0.351399,0 -0.558105,-0.1757 -0.206706,-0.186036 -0.206706,-0.475424 0,-0.186035 0.113688,-0.444417 z"
         style="stroke-width:0.26458332px"
         id="path4626"
         inkscape:connector-curvature="0" />
      <path
         d="m 31.237664,47.562289 q 0.113688,-0.113688 0.310058,-0.113688 0.279053,0 0.3514,0.1757 0.08268,0.1757 0.08268,0.754476 0,0.578776 0.04134,1.746663 l 0.03101,1.043864 0.372071,-0.1757 q 0.382405,-0.186035 0.816487,-0.186035 0.764812,0.01033 1.240235,0.5271 0.444417,0.485758 0.444417,1.395263 0,0.692464 -0.268717,1.364258 -0.258383,0.661458 -0.713135,1.105876 -0.609782,0.599446 -1.570964,0.640787 -0.05168,0 -0.144694,0.01034 -0.09302,0 -0.124023,0 -0.258382,0 -0.496094,-0.124024 l -0.268717,-0.144694 0.01033,-0.671793 v -0.124024 q 0,-0.537435 -0.113688,-3.44165 -0.113688,-2.501139 -0.113688,-3.193604 0,-0.330729 0.02067,-0.423746 0.02067,-0.09302 0.09302,-0.165365 z m 2.459798,4.268473 q -0.206706,-0.134358 -0.454753,-0.144694 -0.413411,0 -0.640787,0.361735 -0.403077,0.651123 -0.403077,1.912028 0,0.03101 0,0.07235 0,0.299724 0.01034,0.444418 0.02067,0.403076 0.04134,0.496093 0.03101,0.09302 0.113688,0.09302 0.279053,0 0.733805,-0.382406 0.454753,-0.392741 0.661459,-0.775146 0.310058,-0.578776 0.310058,-1.209229 0,-0.630452 -0.37207,-0.868164 z"
         style="stroke-width:0.26458332px"
         id="path4628"
         inkscape:connector-curvature="0" />
      <path
         d="m 36.064242,51.148633 q 0.155029,-0.124023 0.320394,-0.134358 0.134359,0 0.268717,0.09302 0.09302,0.07235 0.113688,0.320394 0.02067,0.248047 0.02067,1.27124 0,1.012858 0.02067,1.281576 0.02067,0.258382 0.113688,0.423747 0.217041,0.382405 0.54777,0.382405 0.07235,0 0.113688,-0.01033 0.330729,-0.08268 0.682129,-0.54777 0.3514,-0.475423 0.5271,-1.07487 0.103352,-0.3514 0.124023,-1.043864 0.02067,-0.609782 0.08268,-0.775146 0.06201,-0.165365 0.237712,-0.248047 0.134359,-0.04134 0.19637,-0.05168 0.506429,0 0.506429,0.940511 0,0.3514 -0.04134,0.630453 -0.07235,0.423747 -0.07235,0.857829 0,0.578776 0.124024,1.29191 0.06201,0.372071 0.07235,0.506429 0,0.33073 -0.268718,0.403077 -0.134359,0.02067 -0.186035,0.02067 -0.382406,0 -0.496094,-0.651123 l -0.05168,-0.258382 -0.1757,0.206706 q -0.568441,0.609782 -1.219564,0.682129 -0.227376,0.02067 -0.320394,0.02067 -0.465088,0 -0.806152,-0.279053 -0.361735,-0.320394 -0.465088,-0.785481 -0.103353,-0.475424 -0.113688,-1.912028 v -0.640788 q 0,-0.578776 0.02067,-0.713135 0.02067,-0.134359 0.124023,-0.206706 z"
         style="stroke-width:0.26458332px"
         id="path4630"
         inkscape:connector-curvature="0" />
      <path
         d="m 41.862337,48.120395 q 0.103353,-0.08268 0.268718,-0.08268 0.237711,0 0.341064,0.124024 0.09302,0.113688 0.09302,0.37207 0,0.144694 -0.05168,0.961182 -0.05168,0.950846 -0.05168,1.188558 0,0.05168 0.847493,0.124023 0.671794,0.05168 0.847494,0.134359 0.186035,0.08268 0.186035,0.289388 0,0.186035 -0.09302,0.310058 -0.09302,0.124024 -0.341064,0.124024 -0.03101,0 -0.537435,-0.02067 -0.837158,-0.04134 -0.89917,-0.05168 h -0.02067 q -0.06201,0 -0.09302,0.103353 -0.06201,0.175699 -0.06201,0.403076 0,0.03101 0,0.06201 0.04134,0.558105 0.04134,0.671793 0.02067,0.950846 0.15503,1.415934 0.09302,0.320394 0.258382,0.537435 0.165364,0.206706 0.361735,0.206706 0.144694,0 0.506429,-0.134359 0.320394,-0.113688 0.444417,-0.113688 0.155029,0 0.289388,0.124023 0.103353,0.103353 0.103353,0.279053 0,0.206706 -0.165365,0.341065 -0.165364,0.144694 -0.558105,0.258382 -0.413412,0.124023 -0.7028,0.124023 h -0.04134 q -0.423746,0 -0.682129,-0.186035 -0.248046,-0.186035 -0.465087,-0.630452 -0.186036,-0.403077 -0.258383,-0.857829 -0.09302,-0.578776 -0.113688,-1.405599 l -0.03101,-1.188558 -0.506429,0.04134 q -0.258382,0.02067 -0.392741,0.02067 -0.413411,0 -0.475423,-0.237712 -0.04134,-0.186035 -0.04134,-0.237711 0,-0.1757 0.1757,-0.248047 0.165365,-0.08268 0.640788,-0.124024 0.620117,-0.05168 0.682129,-0.124023 0.04134,-0.05168 0.113688,-1.07487 0.07235,-1.002523 0.103353,-1.219564 0.03101,-0.217041 0.124023,-0.279052 z"
         style="stroke-width:0.26458332px"
         id="path4632"
         inkscape:connector-curvature="0" />
      <path
         d="m 49.562126,50.952263 q 0.103352,-0.113688 0.289388,-0.113688 0.01033,0.01033 0.02067,0.01033 0.1757,0 0.310059,0.103353 0.103353,0.08268 0.144694,0.578776 0.04134,0.475423 0.08268,0.475423 0.04134,0 0.144694,-0.206706 0.124023,-0.248046 0.3514,-0.485758 0.268717,-0.268717 0.454752,-0.361735 0.217041,-0.103353 0.558106,-0.103353 0.806152,0 1.384928,0.661458 0.37207,0.392741 0.537435,0.950847 0.206706,0.640788 0.248047,1.488281 0.04134,0.640788 0.04134,0.826823 0,0.744141 -0.186035,0.888835 -0.103353,0.08268 -0.248047,0.08268 -0.186035,0 -0.310059,-0.124024 -0.07235,-0.07235 -0.09302,-0.217041 -0.01033,-0.155029 -0.01033,-0.651123 0,-0.640787 -0.08268,-1.260905 -0.103353,-0.764811 -0.454752,-1.281575 -0.3514,-0.516764 -0.764812,-0.516764 -0.206705,0 -0.39274,0.144694 -0.744141,0.620117 -0.806153,2.749186 -0.02067,0.837158 -0.08268,1.033528 -0.06201,0.186036 -0.310059,0.186036 -0.330729,0 -0.423746,-0.268718 -0.113688,-0.330729 -0.1757,-1.343587 -0.04134,-0.496094 -0.144694,-1.343587 -0.144694,-1.095541 -0.144694,-1.240235 -0.02067,-0.330729 -0.02067,-0.37207 0,-0.206706 0.08268,-0.289388 z"
         style="stroke-width:0.26458332px"
         id="path4634"
         inkscape:connector-curvature="0" />
      <path
         d="m 56.445428,50.941928 q 0.206705,-0.08268 0.496093,-0.08268 0.413412,0 0.558106,0.144694 l 0.558105,0.268718 q 0.589111,0.299723 0.930176,0.868164 0.3514,0.568441 0.3514,1.498616 0,0.3514 -0.08268,0.620118 -0.227376,0.74414 -0.764811,1.136881 -0.54777,0.403076 -1.260905,0.403076 -0.02067,0 -0.04134,0 -0.72347,0 -1.312581,-0.37207 -0.589112,-0.37207 -0.909505,-1.033529 -0.196371,-0.403076 -0.196371,-0.857828 v -0.454753 q 0,-0.475423 0.155029,-0.816488 0.134359,-0.320394 0.516765,-0.671793 0.299723,-0.289388 0.496094,-0.413412 0.134358,-0.09302 0.506429,-0.237711 z m 0.775146,0.981852 Q 56.90018,51.8721 56.87951,51.8721 q -0.04134,-0.01034 -0.134359,-0.01034 -0.454753,0 -0.806152,0.392741 -0.3514,0.392741 -0.3514,0.868164 0,0.651123 0.08268,0.857829 0.155029,0.392741 0.620117,0.702799 0.475423,0.310059 0.888835,0.310059 0.516764,0 0.909505,-0.444417 0.392741,-0.444418 0.392741,-1.095541 0,-0.661458 -0.37207,-1.043864 -0.361735,-0.392741 -0.888835,-0.485758 z"
         style="stroke-width:0.26458332px"
         id="path4636"
         inkscape:connector-curvature="0" />
      <path
         d="m 60.920607,48.120395 q 0.103352,-0.08268 0.268717,-0.08268 0.237712,0 0.341064,0.124024 0.09302,0.113688 0.09302,0.37207 0,0.144694 -0.05168,0.961182 -0.05168,0.950846 -0.05168,1.188558 0,0.05168 0.847494,0.124023 0.671793,0.05168 0.847493,0.134359 0.186035,0.08268 0.186035,0.289388 0,0.186035 -0.09302,0.310058 -0.09302,0.124024 -0.341065,0.124024 -0.03101,0 -0.537435,-0.02067 -0.837158,-0.04134 -0.89917,-0.05168 h -0.02067 q -0.06201,0 -0.09302,0.103353 -0.06201,0.175699 -0.06201,0.403076 0,0.03101 0,0.06201 0.04134,0.558105 0.04134,0.671793 0.02067,0.950846 0.155029,1.415934 0.09302,0.320394 0.258382,0.537435 0.165365,0.206706 0.361735,0.206706 0.144694,0 0.506429,-0.134359 0.320394,-0.113688 0.444418,-0.113688 0.155029,0 0.289388,0.124023 0.103352,0.103353 0.103352,0.279053 0,0.206706 -0.165364,0.341065 -0.165365,0.144694 -0.558106,0.258382 -0.413411,0.124023 -0.702799,0.124023 h -0.04134 q -0.423747,0 -0.682129,-0.186035 -0.248047,-0.186035 -0.465088,-0.630452 -0.186035,-0.403077 -0.258382,-0.857829 -0.09302,-0.578776 -0.113688,-1.405599 l -0.03101,-1.188558 -0.506429,0.04134 q -0.258382,0.02067 -0.392741,0.02067 -0.413411,0 -0.475423,-0.237712 -0.04134,-0.186035 -0.04134,-0.237711 0,-0.1757 0.1757,-0.248047 0.165364,-0.08268 0.640787,-0.124024 0.620117,-0.05168 0.682129,-0.124023 0.04134,-0.05168 0.113688,-1.07487 0.07235,-1.002523 0.103353,-1.219564 0.03101,-0.217041 0.124024,-0.279052 z"
         style="stroke-width:0.26458332px"
         id="path4638"
         inkscape:connector-curvature="0" />
      <path
         d="m 68.909783,50.921257 q 0.103353,-0.103353 0.310059,-0.103353 0.186035,0 0.289388,0.09302 0.103352,0.103353 0.103352,0.341064 V 51.4897 l 0.33073,-0.144694 q 0.330729,-0.165365 0.651123,-0.227376 0.248047,-0.05168 0.620117,-0.05168 0.630452,0 0.847493,0.103353 0.217041,0.113688 0.217041,0.37207 0,0.268718 -0.206705,0.382406 -0.08268,0.04134 -0.186036,0.04134 -0.04134,0 -0.299723,-0.04134 -0.165364,-0.04134 -0.382405,-0.04134 -0.764812,0 -1.198894,0.485758 -0.19637,0.227377 -0.268717,0.434082 -0.06201,0.196371 -0.06201,0.671794 0,0.124023 0.02067,0.775146 0.01033,0.258382 0.01033,0.7028 0,0.537435 -0.02067,0.578776 -0.08268,0.08268 -0.217041,0.134359 -0.09302,0.03101 -0.175699,0.03101 -0.299724,0 -0.434082,-0.392741 -0.09302,-0.258382 -0.09302,-0.868164 0,-0.113688 0.02067,-1.405598 0.02067,-1.322917 0.04134,-1.674317 0.02067,-0.361735 0.08268,-0.434082 z"
         style="stroke-width:0.26458332px"
         id="path4640"
         inkscape:connector-curvature="0" />
      <path
         d="m 73.51932,51.820427 q 0.516764,-1.012858 1.44694,-1.012858 0.37207,0 0.847493,0.1757 0.971517,0.37207 0.971517,1.105876 0,0.248046 -0.124023,0.485758 -0.196371,0.413411 -0.868165,0.764811 -0.661458,0.341065 -1.364257,0.392741 -0.413412,0.03101 -0.413412,0.103353 0.01034,0.124023 0.144694,0.382405 0.144694,0.248047 0.289388,0.382406 0.434082,0.423747 1.054199,0.423747 0.372071,0 0.888835,-0.113688 0.475423,-0.08268 0.661458,-0.08268 0.310059,0 0.372071,0.237712 0,0.03101 0,0.113688 0,0.299723 -0.206706,0.403076 -0.124023,0.06201 -0.764811,0.15503 -0.558106,0.08268 -0.971517,0.09302 -0.620117,0 -1.012858,-0.186035 -0.289388,-0.134359 -0.620117,-0.465088 -0.330729,-0.330729 -0.475423,-0.640788 -0.165365,-0.320394 -0.206706,-0.971517 0,-0.05168 0,-0.155029 0,-0.103353 0,-0.144694 0,-0.775146 0.3514,-1.44694 z m 2.335774,0.237712 q 0,-0.144694 -0.186035,-0.237712 -0.186035,-0.103353 -0.475423,-0.144694 h -0.08268 q -0.620118,0 -0.930176,0.744141 -0.103353,0.289388 -0.103353,0.351399 0,0.113689 0.186035,0.113689 0.103353,0 0.186035,-0.01034 0.558106,-0.06201 0.981852,-0.310058 0.423747,-0.258382 0.423747,-0.506429 z"
         style="stroke-width:0.26458332px"
         id="path4642"
         inkscape:connector-curvature="0" />
      <path
         d="m 80.309603,50.890251 q 0.155029,-0.03101 0.330729,-0.03101 0.330729,0 0.640788,0.103353 0.320393,0.09302 0.454752,0.237712 0.07235,0.07235 0.08268,0.3514 0.02067,0.268717 0.02067,1.260905 0.01033,1.054199 0.02067,1.322916 0.02067,0.268718 0.124023,0.516764 0.124023,0.372071 0.289388,0.589112 0.155029,0.237711 0.165365,0.392741 0,0.186035 -0.113689,0.299723 -0.113688,0.124023 -0.268717,0.124023 -0.206706,0 -0.37207,-0.186035 -0.124024,-0.144694 -0.299724,-0.485758 -0.175699,-0.341065 -0.175699,-0.454753 0,-0.01033 -0.01034,-0.01033 -0.07235,0 -0.320394,0.258382 -0.56844,0.568441 -1.260905,0.640788 -0.07235,0.01033 -0.206705,0.01033 -0.8785,0 -1.312582,-0.816488 -0.165364,-0.341064 -0.175699,-0.72347 v -0.175699 q 0,-0.516765 0.134358,-0.919841 0.289388,-0.837158 0.940511,-1.498616 0.661459,-0.671794 1.312582,-0.806153 z m 0.640787,0.888835 q -0.08268,-0.05168 -0.217041,-0.05168 -0.258382,0 -0.589111,0.186036 -0.330729,0.1757 -0.609782,0.465088 -0.320394,0.351399 -0.516764,0.806152 -0.258382,0.537435 -0.258382,0.971517 0,0.620117 0.496093,0.754476 0.113689,0.03101 0.217041,0.04134 0.413412,0 0.785482,-0.392741 0.382406,-0.403076 0.568441,-1.054199 0.186035,-0.630453 0.186035,-1.374593 0,-0.299724 -0.06201,-0.3514 z"
         style="stroke-width:0.26458332px"
         id="path4644"
         inkscape:connector-curvature="0" />
      <path
         d="m 83.255161,46.539096 q 0.07235,-0.103353 0.330729,-0.103353 0.19637,0 0.279053,0.07235 0.06201,0.06201 0.06201,1.105876 0,0.961181 -0.08268,4.547526 -0.08268,2.904215 -0.08268,3.348632 -0.01034,0.113688 -0.134359,0.196371 -0.113688,0.07235 -0.268718,0.07235 -0.186035,0 -0.310058,-0.113688 -0.08268,-0.103353 -0.08268,-0.816488 0,-0.89917 0.07235,-3.762044 0.113688,-4.433838 0.217041,-4.547526 z"
         style="stroke-width:0.26458332px"
         id="path4646"
         inkscape:connector-curvature="0" />
      <path
         d="m 85.218864,46.539096 q 0.07235,-0.103353 0.330729,-0.103353 0.19637,0 0.279053,0.07235 0.06201,0.06201 0.06201,1.105876 0,0.961181 -0.08268,4.547526 -0.08268,2.904215 -0.08268,3.348632 -0.01033,0.113688 -0.134359,0.196371 -0.113688,0.07235 -0.268717,0.07235 -0.186036,0 -0.310059,-0.113688 -0.08268,-0.103353 -0.08268,-0.816488 0,-0.89917 0.07235,-3.762044 0.113688,-4.433838 0.217041,-4.547526 z"
         style="stroke-width:0.26458332px"
         id="path4648"
         inkscape:connector-curvature="0" />
      <path
         d="m 87.099885,51.086622 q 0.134358,-0.05168 0.206705,-0.05168 0.09302,0 0.237712,0.113688 0.113688,0.09302 0.134359,0.217041 0.03101,0.113689 0.03101,0.692465 0.01033,2.501139 0.754475,2.501139 0.01034,0 0.423747,-0.165365 0.268718,-0.103353 0.434082,-0.361735 0.134359,-0.19637 0.165365,-0.423746 0.03101,-0.227377 0.04134,-0.837159 0.03101,-1.260905 0.310058,-1.539957 0.103353,-0.103353 0.268718,-0.113688 0.465088,0 0.465088,0.72347 0,0.382405 -0.05168,0.702799 0,0.04134 0,0.113688 0,0.609782 -0.113688,2.790527 -0.05168,0.981853 -0.06201,1.064535 -0.01033,0.09302 -0.103352,0.330729 -0.134359,0.330729 -0.434082,0.609782 -0.248047,0.237712 -0.589112,0.3514 -0.186035,0.06201 -0.558105,0.07235 -0.155029,0 -0.237712,-0.01034 -0.506429,-0.02067 -0.971517,-0.248046 -0.868164,-0.413412 -0.868164,-0.816488 0,-0.144694 0.144694,-0.279053 0.113688,-0.113688 0.258383,-0.124023 0.155029,0 0.330729,0.144694 0.640787,0.516764 1.260905,0.516764 0.702799,0 0.888834,-0.568441 0.08268,-0.258382 0.103353,-0.465087 0.04134,-0.341065 0.04134,-0.465088 0,-0.506429 -0.04134,-0.506429 -0.06201,0 -0.19637,0.134358 -0.165365,0.165365 -0.496094,0.258382 -0.227376,0.06201 -0.444417,0.06201 -0.775147,0 -1.178223,-0.754476 -0.217041,-0.413411 -0.289388,-0.74414 -0.07235,-0.341065 -0.103353,-1.291911 -0.01033,-0.258382 -0.01033,-0.764811 0,-0.506429 0.04134,-0.651123 0.05168,-0.15503 0.206706,-0.217041 z"
         style="stroke-width:0.26458332px"
         id="path4650"
         inkscape:connector-curvature="0" />
      <path
         d="m 91.678414,54.64196 q 0.165365,-0.3514 0.537435,-0.3514 0.134359,0 0.289388,0.06201 0.465088,0.196371 0.465088,0.7028 0,0.175699 -0.04134,0.258382 -0.03101,0.08268 -0.165365,0.227376 -0.19637,0.196371 -0.434082,0.196371 -0.3514,0 -0.558105,-0.1757 -0.206706,-0.186036 -0.206706,-0.475424 0,-0.186035 0.113688,-0.444417 z"
         style="stroke-width:0.26458332px"
         id="path4652"
         inkscape:connector-curvature="0" />
    </g>
  </g>
</svg>
